<svg xmlns="http://www.w3.org/2000/svg" viewBox="0 0 249.67 41.63"><defs><style>.cls-1{fill:#ffffff;}</style></defs><title>playAsset 2</title><g id="Layer_2" data-name="Layer 2"><g id="Layer_1-2" data-name="Layer 1"><path class="cls-1" d="M27,22.89a.83.83,0,0,1-.51.39,2.5,2.5,0,0,0-.63.27,3.15,3.15,0,0,0-.6.48,3.19,3.19,0,0,1-.61.49c.56,2.16,1,4,1.33,5.64s.52,2.8.6,3.6.14,1.69.18,2.65.06,1.84.06,2.64a9.75,9.75,0,0,1-.09,1.47,6.91,6.91,0,0,1-.27,1.11,8.66,8.66,0,0,1-1.17-1.92c-.3-.68-.62-1.36-.94-2q-1-3.06-1.95-6.43T20.54,24.4c-1.12,0-2.32-.07-3.6-.07H13.09c-1.28,0-2.49,0-3.63,0s-2.13.06-3,.1q-.12.36-.24.84A10.09,10.09,0,0,0,5.65,27q-.24.93-.42,2c-.12.7-.27,1.43-.42,2.19s-.37,1.52-.61,2.28A2.75,2.75,0,0,0,5.74,33a2.69,2.69,0,0,1,1.53-.51,6,6,0,0,0-.93,1.2,7.58,7.58,0,0,0-.69,1.75,1.37,1.37,0,0,1-.36.63,4.12,4.12,0,0,0-.43.51q-.12.24-.24.51a.88.88,0,0,1-.3.39,1.91,1.91,0,0,1-.72.27.41.41,0,0,1-.42-.15A4.07,4.07,0,0,1,2.55,36q-.15-.81-.27-1.71A27.28,27.28,0,0,1,2.7,30.1q.42-2.58,1.08-5.52a2.81,2.81,0,0,1-1-.46A3.91,3.91,0,0,0,2,23.67,3.35,3.35,0,0,0,.9,23.34a1.59,1.59,0,0,1-.9-.45l3.66-1a3.37,3.37,0,0,0,.78-.12c.48-1.88,1-3.68,1.45-5.4S6.83,13.22,7.27,12q.48-1.38,1.17-3.18a25.88,25.88,0,0,1,1.62-3.45,13.74,13.74,0,0,1,2.1-2.86A5.06,5.06,0,0,1,14.71,1a6.44,6.44,0,0,1,.85-.18,6.37,6.37,0,0,1,.9-.06.77.77,0,0,1,.72.45,9.93,9.93,0,0,0,.72,1.11q.3.54.57.93A5.53,5.53,0,0,1,19,4.88q1.44,4.38,2.7,8.79T24,22l3.67.78ZM14.71,3.61a27.22,27.22,0,0,0-1.92,3q-.9,1.65-1.8,3.78T9.19,15.3Q8.29,18,7.33,21.45q3.12-.36,6.24-.42a53,53,0,0,1,6.19.24L17.3,11.81A77,77,0,0,0,14.71,3.61Z"/><path class="cls-1" d="M35.8,5.06q.72,3.24,1.14,6.48c.28,2.16.54,4.33.78,6.49s.49,4.32.75,6.49.61,4.32,1.05,6.48q-.12.78-.18,1.26t-.3.6a5.72,5.72,0,0,0-.57.39,2.06,2.06,0,0,1-.57.33.8.8,0,0,0-.24.22.76.76,0,0,1-.27.21.32.32,0,0,1-.27,0,1,1,0,0,1-.3-.37c-.76-2.28-1.46-4.58-2.08-6.9a70.91,70.91,0,0,1-1.5-7,60.83,60.83,0,0,1-.72-7.18,55.46,55.46,0,0,1,.21-7.47c0-.6.18-1,.54-1.15q.24-.12.63.18a2.78,2.78,0,0,0,.69.43,2.59,2.59,0,0,0,.67.21A1,1,0,0,1,35.8,5.06Z"/><path class="cls-1" d="M58,15.15a7.11,7.11,0,0,1,.78.93,6,6,0,0,1,1.11,3.3A5.3,5.3,0,0,1,59,22.05a9.54,9.54,0,0,1-2.61,2.83A8.15,8.15,0,0,1,53,26.32a6.9,6.9,0,0,1-2.64,0,6.28,6.28,0,0,1-2.52-1.17,2,2,0,0,0-.57.87A2.23,2.23,0,0,0,47.09,27a5.87,5.87,0,0,0,.63,1.83,3.26,3.26,0,0,0,1.11,1.35,5.1,5.1,0,0,0,2.85.06,27,27,0,0,0,3.91-1.11q2.07-.75,4.08-1.68l3.45-1.59a.6.6,0,0,1-.15.48,2.83,2.83,0,0,0-.39.42q-.3.3-.66.72a3.64,3.64,0,0,1-.84.72,2.36,2.36,0,0,0-.9.93,2.8,2.8,0,0,1-1.14,1l-2.31,1.23c-.78.42-1.56.8-2.32,1.14a12.57,12.57,0,0,1-2.31.78,6.71,6.71,0,0,1-2.31.15,3.62,3.62,0,0,1-1.29-.42,9.72,9.72,0,0,1-1.23-.9,7.63,7.63,0,0,0-.84-.6,2.85,2.85,0,0,1-.72-.6,8.79,8.79,0,0,1-1.39-3.21,10.41,10.41,0,0,1-.15-3.43A13,13,0,0,1,45.05,21a12,12,0,0,1,1.74-3,13.17,13.17,0,0,1,1.47-1.59,11.46,11.46,0,0,1,1.92-1.44,10.07,10.07,0,0,1,2.22-1,6.84,6.84,0,0,1,2.37-.3,2.58,2.58,0,0,1,.88.27q.39.23.87.45l.75.34A3.71,3.71,0,0,1,58,15.15Zm-1.74,3.54a1.69,1.69,0,0,0-.66-1A5.34,5.34,0,0,0,54.41,17a4.57,4.57,0,0,0-1.32-.33,2.24,2.24,0,0,0-1,.06A5,5,0,0,0,51,17.4a8.36,8.36,0,0,0-1.2,1.05,13.65,13.65,0,0,0-1.08,1.29A5.91,5.91,0,0,0,48,21a1.8,1.8,0,0,0-.21.57.74.74,0,0,0,0,.57,2.6,2.6,0,0,0,2.16.9,7.78,7.78,0,0,0,3-.66A6.42,6.42,0,0,0,55.19,21a3.21,3.21,0,0,1,.28-.42,6.76,6.76,0,0,0,.39-.66q.18-.36.33-.72A.84.84,0,0,0,56.28,18.69Z"/><path class="cls-1" d="M68.59,25.48c.68-.68,1.37-1.42,2.07-2.2s1.43-1.53,2.19-2.25a23.25,23.25,0,0,1,2.34-2,12.14,12.14,0,0,1,2.53-1.41,1,1,0,0,1,.57-.06,1,1,0,0,0,.57-.06h.84a1,1,0,0,1,.66.24,3.88,3.88,0,0,1,1.35,1.53,12.81,12.81,0,0,1,.87,2.19,4.32,4.32,0,0,1,.27,1.26,4.56,4.56,0,0,0,.33,1.38c.24.77.51,1.54.81,2.32a4.76,4.76,0,0,1,.33,2.25,1.69,1.69,0,0,1-.18.51l-.3.51a3.36,3.36,0,0,1-.42.6,2.44,2.44,0,0,1-.6.54,1.74,1.74,0,0,0-.39.39,1.21,1.21,0,0,1-.57.33,9.36,9.36,0,0,1-1.2-2.46,27.8,27.8,0,0,1-.72-2.76c-.2-1-.38-1.94-.54-2.95s-.36-2-.6-3.06q-.12-.42-.75-.48a2.53,2.53,0,0,0-1.44.39,7.12,7.12,0,0,0-1.72,1.41,9.72,9.72,0,0,0-1.62,2.46c-.32.73-.62,1.48-.9,2.26s-.59,1.56-.93,2.34A17.75,17.75,0,0,1,70.24,31a9.93,9.93,0,0,1-1.65,2q-.3.3-.42.06a1.05,1.05,0,0,0-.6-.42q-.36-.12-.39-.24T67,31.72c-.24-.84-.5-1.8-.75-2.88l-.85-3.42c-.3-1.21-.61-2.42-.93-3.64s-.64-2.37-1-3.45l-.36-1.08a1,1,0,0,1,.45-.42,4.23,4.23,0,0,1,.69-.3,1.07,1.07,0,0,1,.78.06,1.82,1.82,0,0,0,.66.18,1.45,1.45,0,0,1,1.18.84,8.55,8.55,0,0,1,.87,2.13,21.27,21.27,0,0,1,.57,2.82C68.46,23.58,68.55,24.56,68.59,25.48Z"/><path class="cls-1" d="M122.46,10a2,2,0,0,1-.09,1.2,3.4,3.4,0,0,0-.33,1.14,14.55,14.55,0,0,1-1,3.58,21.15,21.15,0,0,1-1.8,3.27q1.2,0,2.67.06a13.43,13.43,0,0,1,2.85.42,1.86,1.86,0,0,1,.75.42q.33.3.63.54l.84.54a1.92,1.92,0,0,1,.6.66,4,4,0,0,1,.51,2.25,5.66,5.66,0,0,1-.69,2.26A30.8,30.8,0,0,1,123,32.56a75.68,75.68,0,0,1-5.86,6,2.07,2.07,0,0,1-1,.39,3.17,3.17,0,0,0-.78.15,5.94,5.94,0,0,1-1.05.36,1,1,0,0,1-.69,0q-.24-.18,0-.39a2.12,2.12,0,0,0,.42-.51A21.87,21.87,0,0,1,117,34.82q1.73-1.84,3.52-3.7T124,27.43a21.55,21.55,0,0,0,2.85-3.76,9.12,9.12,0,0,0-3.09-.84,33.15,33.15,0,0,0-4-.24,25,25,0,0,0-4,.3,9.31,9.31,0,0,0-2.76.78v1.12q0,.69-.06,1.47t-.09,1.59q0,.81-.09,1.53a3.16,3.16,0,0,0,0,1.5q.18.66.3,1.32a9.31,9.31,0,0,1,.12,1.38v1.27a6.19,6.19,0,0,0,.06.81,1.62,1.62,0,0,1-.12.87,13.46,13.46,0,0,1-2.46-4.27A30.25,30.25,0,0,1,109.25,27a43.59,43.59,0,0,1-.6-5.65q-.12-2.88-.06-5.55c0-1.78.11-3.42.21-4.9s.19-2.72.27-3.72a6.76,6.76,0,0,0-1.62.09c-.65.1-1.25.21-1.81.33h-.48l-.63,0a3.8,3.8,0,0,1-.57-.09.74.74,0,0,1-.3-.12q-.18-.18-.33,0t-.27-.09a1,1,0,0,1-.06-.87.88.88,0,0,0-.12-.87,2.78,2.78,0,0,1,2-1.27A24.27,24.27,0,0,1,108,3.85a18.21,18.21,0,0,1,3-.36,18.82,18.82,0,0,1,3.18.15,13.73,13.73,0,0,1,3,.76,10.44,10.44,0,0,1,2.65,1.44,7.5,7.5,0,0,1,1.38,1.38,5.76,5.76,0,0,1,.63,1.35A13.28,13.28,0,0,0,122.46,10Zm-2.82,0a3.4,3.4,0,0,0-1.17-1.35,8.15,8.15,0,0,0-1.75-.93,10.52,10.52,0,0,0-1.92-.54A10,10,0,0,0,113,7q-.12.72-.27,2.31t-.24,3.42c-.06,1.23-.11,2.43-.15,3.61a21.72,21.72,0,0,0,.06,2.91A12.94,12.94,0,0,0,114.71,18a10.5,10.5,0,0,0,2.1-1.92,13.16,13.16,0,0,0,1.72-2.65A13,13,0,0,0,119.64,10Z"/><path class="cls-1" d="M148.35,17.49q0,4.2.09,7.81a48.79,48.79,0,0,0,.69,7.08,1.18,1.18,0,0,1-.18.78,8.43,8.43,0,0,1-.48.73c-.25.28-.47.55-.67.81a1.51,1.51,0,0,1-.6.51q-.6.3-.72.12a1.34,1.34,0,0,1-.18-.48c-.16-.76-.37-1.8-.63-3.1a28.94,28.94,0,0,1-.51-3.93q-.72,1.2-1.59,2.43a18.85,18.85,0,0,1-1.86,2.25,20,20,0,0,1-2,1.84,7.47,7.47,0,0,1-2,1.17q-.42.18-.57.06a1.74,1.74,0,0,0-.51-.24l-1-.45a1.78,1.78,0,0,1-.81-.64A15.55,15.55,0,0,1,133.69,32a13.15,13.15,0,0,1-.81-3.66,27.34,27.34,0,0,1,0-3.84,36.33,36.33,0,0,1,.42-3.73q.3-1.8.6-3.3a.48.48,0,0,1,.3-.39.48.48,0,0,0,.3-.39,1,1,0,0,1,.45-.66,4.23,4.23,0,0,1,.69-.3l.75-.21a2.47,2.47,0,0,1,.75-.09,24.48,24.48,0,0,0-.84,4,30.8,30.8,0,0,0-.27,4.53,27.12,27.12,0,0,0,.42,4.48,14.74,14.74,0,0,0,1.17,3.78,15,15,0,0,0,2.26-1.92,28.78,28.78,0,0,0,2.07-2.37q1-1.23,1.71-2.37a14.76,14.76,0,0,0,1.11-1.93,12,12,0,0,0,.45-2.73q.09-1.53.09-2.73a1.53,1.53,0,0,1,.09-.84l.33-.66a.92.92,0,0,0,.15-.36.44.44,0,0,1,.21-.3,2.67,2.67,0,0,0,.27-.33.42.42,0,0,1,.33-.21.47.47,0,0,1,.48.36,1.08,1.08,0,0,0,.36.54,2.66,2.66,0,0,0,.57.45C148.26,16.9,148.35,17.13,148.35,17.49Z"/><path class="cls-1" d="M165.16.61a34,34,0,0,0,.72,7.18q.72,3.33,1.2,6.81c.32,2.37.55,4.7.66,7s.29,4.44.49,6.4a1.62,1.62,0,0,0-.16.84,1,1,0,0,1-.26.78,18.31,18.31,0,0,1-2.05,1.62,18.88,18.88,0,0,1-2.52,1.44,1.86,1.86,0,0,1-1,.21,3.13,3.13,0,0,0-1,.09q-.54.12-1.11.3a2.32,2.32,0,0,1-1.17.06,12,12,0,0,1-1.57-.57,15.41,15.41,0,0,1-1.8-.93,11.25,11.25,0,0,1-1.65-1.2,4.37,4.37,0,0,1-1.11-1.44,12.05,12.05,0,0,1,.27-6.19A15.29,15.29,0,0,1,156,18a1.49,1.49,0,0,1,.6-.45,2.73,2.73,0,0,0,.66-.39,2.94,2.94,0,0,1,.66-.39,1.67,1.67,0,0,1,.85-.09,13.4,13.4,0,0,1,2.64.57,16.49,16.49,0,0,0,2.22.57V17a24.3,24.3,0,0,0-.21-3.16q-.21-1.59-.39-3.21t-.27-3.33a19.12,19.12,0,0,1,.15-3.52,4.22,4.22,0,0,1,.24-1,8.84,8.84,0,0,0,.3-1,4.65,4.65,0,0,1,.36-.69,1.18,1.18,0,0,1,.54-.51.54.54,0,0,0,.36-.39q.06-.27.3-.21t.21.18A2,2,0,0,0,165.16.61Zm-.36,28a17.64,17.64,0,0,0,0-1.89,10.83,10.83,0,0,0-.39-2.56,8.47,8.47,0,0,0-1.17-2.52,4.92,4.92,0,0,0-2.25-1.8q-.66.06-1.53.21a7.85,7.85,0,0,0-1.72.51,5.88,5.88,0,0,0-1.56,1,4.44,4.44,0,0,0-1.14,1.59,5.47,5.47,0,0,0,0,2.8A6.59,6.59,0,0,0,157,29.2a4.45,4.45,0,0,0,1.93.63,10.25,10.25,0,0,0,2.07,0,8.91,8.91,0,0,0,2-.48Q164,29,164.8,28.6Z"/><path class="cls-1" d="M179.88,13.88c.32.33.45.59.39.79a.3.3,0,0,1-.39.24,10.82,10.82,0,0,0-1.72.15q-.93.15-2,.24a15.87,15.87,0,0,1-2.19,0,9.14,9.14,0,0,1-2.28-.42c-.32-.32-.31-.61,0-.88a2.6,2.6,0,0,0,.81-1.17,1.35,1.35,0,0,1,.51-.75,1.84,1.84,0,0,1,.69-.27,6.5,6.5,0,0,1,1.65.27,9.93,9.93,0,0,0,1.65.33,9.53,9.53,0,0,1,1.69.33A2.13,2.13,0,0,1,179.88,13.88Zm-1.27,8.17c.24.92.43,1.76.57,2.53s.25,1.49.31,2.19.09,1.41.12,2.13,0,1.5,0,2.34a.76.76,0,0,1-.27.51,1.61,1.61,0,0,0-.4.57,2,2,0,0,1-.39.66,3.1,3.1,0,0,1-.51.3,4.78,4.78,0,0,0-1.5,1,6.83,6.83,0,0,1-1-2.65,25.63,25.63,0,0,1-.36-3.12q-.09-1.62-.18-3.27a18.78,18.78,0,0,0-.45-3.22q-.18-.84.12-1.14a1.68,1.68,0,0,1,.66-.42,1.18,1.18,0,0,1,.93.18l1,.6a1.94,1.94,0,0,0,.81.27A.67.67,0,0,1,178.61,22.05Z"/><path class="cls-1" d="M186.9,15.27a12.38,12.38,0,0,1,.3,3.24q-.06,1.68-.15,3.39a32.7,32.7,0,0,0,0,3.43,7.76,7.76,0,0,0,.87,3.21,22.28,22.28,0,0,1,3.79-6.22,41.5,41.5,0,0,1,5.1-5,1.81,1.81,0,0,1,.75-.39q.39-.09.75-.21l.58-.21a1,1,0,0,1,.75.15A3,3,0,0,1,201,19.17c.12,1.24.18,3,.18,5.29.6-.61,1.21-1.28,1.83-2s1.25-1.45,1.89-2.13a16.45,16.45,0,0,1,2-1.8,7,7,0,0,1,2.17-1.14,1.36,1.36,0,0,1,.75,0,3.33,3.33,0,0,0,.75.09.93.93,0,0,0,.42-.09.59.59,0,0,1,.42,0,1.07,1.07,0,0,1,.63.36,1.86,1.86,0,0,1,.39.66l.66,2.49q.42,1.59.75,3.24c.22,1.11.39,2.14.51,3.1a5.58,5.58,0,0,1,0,2,1.85,1.85,0,0,1-.27.72q-.15.18-.63.66-.12,0-.27.18t-.33.36a4.51,4.51,0,0,0-.42.48,9.36,9.36,0,0,1-1.2-2.46,27.8,27.8,0,0,1-.72-2.76c-.2-1-.38-1.94-.54-2.95s-.36-2-.6-3.06a8.76,8.76,0,0,0-2.74,2.07A11,11,0,0,0,205,24.91q-.6,1.29-1.08,2.61a14.55,14.55,0,0,1-1.2,2.52,8.21,8.21,0,0,1-1.32,1.62q-.66.6-1.08.54t-.54-.66q-.18-.6-.48-1.8-.61-2.46-1.12-5.28t-1.11-5.11a6.65,6.65,0,0,0-2.25,1.29,14.2,14.2,0,0,0-2.07,2.16,16.28,16.28,0,0,0-1.71,2.74,14,14,0,0,0-1.11,3,2.4,2.4,0,0,1,.06,2.58,2.46,2.46,0,0,1-.85.81c-.35.22-.78.45-1.26.69a.91.91,0,0,1-.9.3,1.3,1.3,0,0,1-.78-.57,2.26,2.26,0,0,1-.36-.75q-.36-1.92-.72-4a32.37,32.37,0,0,1-.45-4.18,26.35,26.35,0,0,1,.15-4.17,15.2,15.2,0,0,1,1-4q.12-.36.24-.36a.4.4,0,0,1,.24.09,1.58,1.58,0,0,0,.24.15l.15.06Z"/><path class="cls-1" d="M225.58,13.88c.32.33.45.59.39.79a.3.3,0,0,1-.39.24,10.8,10.8,0,0,0-1.71.15q-.93.15-2,.24a16,16,0,0,1-2.2,0,9.14,9.14,0,0,1-2.28-.42c-.32-.32-.31-.61,0-.88a2.6,2.6,0,0,0,.81-1.17,1.35,1.35,0,0,1,.51-.75,1.84,1.84,0,0,1,.69-.27,6.57,6.57,0,0,1,1.66.27,9.93,9.93,0,0,0,1.65.33,9.22,9.22,0,0,1,1.68.33A2.1,2.1,0,0,1,225.58,13.88Zm-1.26,8.17c.24.92.43,1.76.57,2.53s.24,1.49.3,2.19.1,1.41.12,2.13,0,1.5,0,2.34a.76.76,0,0,1-.27.51,1.71,1.71,0,0,0-.39.57,2,2,0,0,1-.39.66,3.1,3.1,0,0,1-.51.3,4.78,4.78,0,0,0-1.5,1,6.83,6.83,0,0,1-1.05-2.65,25.63,25.63,0,0,1-.36-3.12q-.09-1.62-.18-3.27a18.78,18.78,0,0,0-.45-3.22c-.12-.56-.09-.94.12-1.14a1.68,1.68,0,0,1,.66-.42,1.18,1.18,0,0,1,.93.18l1,.6a1.94,1.94,0,0,0,.81.27A.67.67,0,0,1,224.32,22.05Z"/><path class="cls-1" d="M249.42,14.24a6.52,6.52,0,0,0,.18,1.36,1.7,1.7,0,0,1-.12,1.29.64.64,0,0,0-.12.45.5.5,0,0,1-.18.45l-.78-.48a4.2,4.2,0,0,0-2.13-.42,7.38,7.38,0,0,0-2.37.54,7.52,7.52,0,0,0-1.65,1,12.66,12.66,0,0,0-1.53,1.41,16.81,16.81,0,0,0-1.33,1.62,15.22,15.22,0,0,0-1,1.62,8.42,8.42,0,0,0-.93,4.21,17.1,17.1,0,0,0,1.77,6.36,1.63,1.63,0,0,1-.6,1,3.51,3.51,0,0,0-.3.36,3.51,3.51,0,0,1-.3.36,1.79,1.79,0,0,0-.57.72.63.63,0,0,1-.39.42q-.48.18-.9-.84a28.41,28.41,0,0,1-2-4.42q-.93-2.61-1.74-5.37c-.54-1.84-1-3.62-1.44-5.32s-.75-3.13-1-4.29a1.5,1.5,0,0,1-.07-.93,2.34,2.34,0,0,1,.37-.76.35.35,0,0,1,.45-.11,1.12,1.12,0,0,0,.45.11c.52,0,.84.11,1,.31a5.9,5.9,0,0,0,.6.78,6.8,6.8,0,0,1,1.32,2.58q.48,1.62,1.2,3.84A15.36,15.36,0,0,1,237.8,19a23.94,23.94,0,0,1,3.34-2.73,20.44,20.44,0,0,1,3.72-2,13.45,13.45,0,0,1,3.72-1,.69.69,0,0,1,.63.21A.85.85,0,0,1,249.42,14.24Z"/></g></g></svg>