<?xml version="1.0" standalone="no"?>
<!DOCTYPE svg PUBLIC "-//W3C//DTD SVG 20010904//EN"
 "http://www.w3.org/TR/2001/REC-SVG-20010904/DTD/svg10.dtd">
<svg version="1.0" xmlns="http://www.w3.org/2000/svg"
 width="512.000000pt" height="512.000000pt" viewBox="0 0 512.000000 512.000000"
 preserveAspectRatio="xMidYMid meet">
<metadata>
Created by potrace 1.11, written by Peter Selinger 2001-2013
</metadata>
<g transform="translate(0.000000,512.000000) scale(0.100000,-0.100000)"
fill="#000000" stroke="none">
<path d="M2025 3885 c-250 -37 -297 -46 -332 -64 -63 -32 -71 -47 -69 -131 1
-72 2 -75 26 -77 14 -1 52 -7 85 -12 47 -8 83 -6 173 10 123 21 159 23 165 12
2 -5 -2 -80 -9 -168 -20 -250 -28 -765 -15 -950 25 -362 94 -672 194 -870 36
-72 128 -208 135 -200 13 13 0 275 -18 366 -17 80 -18 111 -11 200 5 57 13
170 17 252 l7 147 66 20 c197 59 613 69 836 19 72 -17 125 -39 125 -54 0 -15
-96 -151 -148 -210 -19 -22 -150 -161 -292 -310 -339 -356 -379 -402 -461
-522 -38 -56 -74 -105 -79 -108 -16 -10 -1 -25 26 -25 24 0 150 32 209 53 37
14 333 309 469 467 180 210 318 424 358 554 25 82 21 155 -14 224 -32 64 -179
176 -252 192 -62 13 -228 29 -313 30 -35 0 -63 2 -63 3 0 2 22 41 49 86 65
107 108 213 137 336 14 55 31 123 39 151 21 73 20 88 -22 199 -35 92 -44 106
-113 176 -90 90 -192 145 -346 185 -85 23 -124 27 -279 30 -121 2 -213 -2
-280 -11z m522 -265 c138 -33 273 -112 308 -180 12 -23 12 -36 -4 -96 -67
-257 -238 -477 -459 -588 -29 -15 -57 -24 -62 -21 -23 14 6 697 37 873 5 31 7
32 52 32 25 0 83 -9 128 -20z"/>
</g>
</svg>
